<svg xmlns="http://www.w3.org/2000/svg" xmlns:xlink="http://www.w3.org/1999/xlink" width="500" zoomAndPan="magnify" viewBox="0 0 375 374.999991" height="500" preserveAspectRatio="xMidYMid meet" version="1.0"><defs><clipPath id="f8b24d8697"><path d="M 4.644531 4.652344 L 371 4.652344 L 371 370.347656 L 4.644531 370.347656 Z M 4.644531 4.652344 " clip-rule="nonzero"/></clipPath><clipPath id="ba370d18df"><path d="M 12.144531 4.652344 L 362.855469 4.652344 C 366.996094 4.652344 370.355469 8.011719 370.355469 12.152344 L 370.355469 362.847656 C 370.355469 366.988281 366.996094 370.347656 362.855469 370.347656 L 12.144531 370.347656 C 8.003906 370.347656 4.644531 366.988281 4.644531 362.847656 L 4.644531 12.152344 C 4.644531 8.011719 8.003906 4.652344 12.144531 4.652344 Z M 12.144531 4.652344 " clip-rule="nonzero"/></clipPath><clipPath id="f5b6fe20e9"><path d="M 160 149 L 269.40625 149 L 269.40625 274.324219 L 160 274.324219 Z M 160 149 " clip-rule="nonzero"/></clipPath><clipPath id="4011ec334f"><path d="M 105.90625 100.324219 L 214 100.324219 L 214 202 L 105.90625 202 Z M 105.90625 100.324219 " clip-rule="nonzero"/></clipPath></defs><g clip-path="url(#f8b24d8697)"><g clip-path="url(#ba370d18df)"><path fill="#15307b" d="M 4.644531 4.652344 L 370.335938 4.652344 L 370.335938 370.347656 L 4.644531 370.347656 Z M 4.644531 4.652344 " fill-opacity="1" fill-rule="nonzero"/></g></g><g clip-path="url(#f5b6fe20e9)"><path fill="#f7ece0" d="M 216.109375 230.054688 C 231.875 225.789062 244.652344 219.082031 254.425781 209.945312 C 264.191406 200.8125 269.082031 188.988281 269.082031 174.472656 L 269.082031 149.757812 L 213.988281 149.859375 L 213.988281 176.523438 C 213.988281 184.207031 210.398438 190.351562 203.214844 194.964844 C 196.039062 199.570312 185.738281 201.875 172.3125 201.875 L 160.835938 201.875 L 160.835938 237.667969 L 194.242188 274.6875 L 257.8125 274.6875 L 216.109375 230.054688 " fill-opacity="1" fill-rule="nonzero"/></g><g clip-path="url(#4011ec334f)"><path fill="#f7ece0" d="M 213.464844 149.417969 L 213.464844 100.328125 L 105.925781 100.328125 L 105.925781 201.085938 L 160.316406 201.085938 L 160.316406 149.417969 L 213.464844 149.417969 " fill-opacity="1" fill-rule="nonzero"/></g></svg>