<svg xmlns="http://www.w3.org/2000/svg" xmlns:xlink="http://www.w3.org/1999/xlink" width="500" zoomAndPan="magnify" viewBox="0 0 375 374.999991" height="500" preserveAspectRatio="xMidYMid meet" version="1.0"><defs><clipPath id="ce35e1b672"><path d="M 165 156 L 254.8125 156 L 254.8125 259.933594 L 165 259.933594 Z M 165 156 " clip-rule="nonzero"/></clipPath><clipPath id="af44ccb626"><path d="M 119.8125 115.183594 L 210 115.183594 L 210 199 L 119.8125 199 Z M 119.8125 115.183594 " clip-rule="nonzero"/></clipPath></defs><g clip-path="url(#ce35e1b672)"><path fill="#15307b" d="M 211.226562 222.792969 C 224.304688 219.257812 234.90625 213.691406 243.011719 206.113281 C 251.113281 198.535156 255.171875 188.730469 255.171875 176.6875 L 255.171875 156.1875 L 209.46875 156.273438 L 209.46875 178.390625 C 209.46875 184.765625 206.492188 189.859375 200.535156 193.6875 C 194.578125 197.507812 186.039062 199.421875 174.902344 199.421875 L 165.382812 199.421875 L 165.382812 229.109375 L 193.089844 259.816406 L 245.820312 259.816406 L 211.226562 222.792969 " fill-opacity="1" fill-rule="nonzero"/></g><g clip-path="url(#af44ccb626)"><path fill="#15307b" d="M 209.035156 155.90625 L 209.035156 115.1875 L 119.832031 115.1875 L 119.832031 198.765625 L 164.949219 198.765625 L 164.949219 155.90625 L 209.035156 155.90625 " fill-opacity="1" fill-rule="nonzero"/></g></svg>